<svg width="19" height="19" viewBox="0 0 19 19" fill="none" xmlns="http://www.w3.org/2000/svg">
<path fill-rule="evenodd" clip-rule="evenodd" d="M6.65008 0H12.3501C13.3994 0 14.2501 0.766588 14.2501 1.71222V2.56836H17.1C18.1493 2.56836 19 3.33495 19 4.28058V5.99281C19 6.93844 18.1493 7.70503 17.1 7.70503H17.0228L16.149 17.1221C16.149 18.0678 15.2983 18.8343 14.249 18.8343H4.74896C3.69962 18.8343 2.84896 18.0678 2.85225 17.1932L1.97485 7.70503H1.9C0.850659 7.70503 0 6.93844 0 5.99281V4.28058C0 3.33495 0.850659 2.56836 1.9 2.56836H4.75008V1.71222C4.75008 0.766588 5.60074 0 6.65008 0ZM4.74957 17.1223L3.88174 7.70508H15.1171L14.2529 17.0512L14.2496 17.1223H4.74957ZM1.90093 5.99299V4.28076H17.1009V5.99299H1.90093ZM12.3519 1.7124V2.56851H6.65186V1.7124H12.3519ZM5.97925 10.0227L7.32275 8.81201L9.501 10.775L11.6792 8.81201L13.0228 10.0227L10.8445 11.9857L13.0228 13.9487L11.6792 15.1594L9.501 13.1964L7.32275 15.1594L5.97925 13.9487L8.1575 11.9857L5.97925 10.0227Z" fill="#183B56"/>
</svg>
