<svg width="17" height="17" viewBox="0 0 17 17" fill="none" xmlns="http://www.w3.org/2000/svg">
<path fill-rule="evenodd" clip-rule="evenodd" d="M13.7875 0.704102C13.3413 0.254357 12.785 0 12.1429 0C11.5058 0 10.847 0.251549 10.3954 0.705432L1.19238 9.90736C0.526673 10.493 0.0813334 11.3837 0.00394357 12.3415L0 15.7858V17H1.21429H4.56134C5.61532 16.9284 6.51659 16.4779 7.15239 15.7445L16.2978 6.60449C16.7499 6.15244 17 5.49264 17 4.8566C17 4.21643 16.7479 3.66414 16.2978 3.21407L13.7875 0.704102ZM2.42773 12.4392C2.45062 12.2049 2.60504 11.8961 2.85464 11.6754L12.0913 2.44302L14.5578 4.90928L5.3754 14.0907C5.10289 14.4003 4.80007 14.5517 4.47476 14.5747L2.42773 14.5728V12.4392Z" fill="#183B56"/>
</svg>
